<svg id="Layer_1" data-name="Layer 1" xmlns="http://www.w3.org/2000/svg" viewBox="0 0 83.79 73.17"><defs><style>.cls-1,.cls-2{fill:#475a63;}.cls-2{stroke:#fff;stroke-miterlimit:10;stroke-width:0.65px;}</style></defs><title>techies_logo</title><rect class="cls-1" y="0.32" width="83.79" height="18.49" rx="8.71" ry="8.71"/><path class="cls-2" d="M46.48,41.9q0-4.21-4.21-4.21h-5a12.37,12.37,0,0,1-9.53-4.21A14.83,14.83,0,0,1,24,23.09a16.07,16.07,0,0,1,5-12A17,17,0,0,1,41.28,6.26a17.38,17.38,0,0,1,14.36,6.93q5.44,6.93,5.45,18.07,0,18.81-14.6,38.86Q40,78.78,35.59,78.78q-5,0-4.95-4.95c0-1.16.65-2.64,2-4.45Q46.48,51.06,46.48,41.9Z" transform="translate(-0.62 -5.93)"/></svg>